<?xml version="1.0" encoding="UTF-8" standalone="no"?>
<!DOCTYPE svg PUBLIC "-//W3C//DTD SVG 1.1//EN"
 "http://www.w3.org/Graphics/SVG/1.1/DTD/svg11.dtd">
<!-- Generated by graphviz version 9.0.0 (0)
 -->
<!-- Pages: 1 -->
<svg width="1380pt" height="1315pt"
 viewBox="0.00 0.00 1380.10 1315.34" xmlns="http://www.w3.org/2000/svg" xmlns:xlink="http://www.w3.org/1999/xlink">
<g id="graph0" class="graph" transform="scale(1 1) rotate(0) translate(28.8 1286.54)">
<polygon fill="white" stroke="none" points="-28.8,28.8 -28.8,-1286.54 1351.3,-1286.54 1351.3,28.8 -28.8,28.8"/>
<text text-anchor="middle" x="661.25" y="-1219.54" font-family="Helvetica,sans-Serif" font-size="36.00">cargo_modules</text>
<!-- cargo_modules -->
<g id="node1" class="node">
<title>cargo_modules</title>
<polygon fill="#5397c8" stroke="black" points="434.02,-686.87 434.02,-731.37 528.02,-731.37 528.02,-686.87 434.02,-686.87"/>
<text text-anchor="middle" x="481.02" y="-717.87" font-family="monospace" font-size="10.00">crate</text>
<polyline fill="none" stroke="black" points="434.02,-709.12 528.02,-709.12"/>
<text text-anchor="middle" x="481.02" y="-695.62" font-family="monospace" font-size="10.00">cargo_modules</text>
</g>
<!-- cargo_modules::analyzer -->
<g id="node2" class="node">
<title>cargo_modules::analyzer</title>
<polygon fill="#f8c04c" stroke="black" points="438.3,-551.45 438.3,-595.95 538.3,-595.95 538.3,-551.45 438.3,-551.45"/>
<text text-anchor="middle" x="488.3" y="-582.45" font-family="monospace" font-size="10.00">pub(crate) mod</text>
<polyline fill="none" stroke="black" points="438.3,-573.7 538.3,-573.7"/>
<text text-anchor="middle" x="488.3" y="-560.2" font-family="monospace" font-size="10.00">analyzer</text>
</g>
<!-- cargo_modules&#45;&gt;cargo_modules::analyzer -->
<g id="edge1" class="edge">
<title>cargo_modules&#45;&gt;cargo_modules::analyzer</title>
<path fill="none" stroke="#000000" d="M482.24,-686.45C483.4,-664.97 485.15,-632.42 486.47,-607.81"/>
<polygon fill="#000000" stroke="#000000" points="489.96,-608.13 487,-597.96 482.97,-607.75 489.96,-608.13"/>
<text text-anchor="middle" x="472.36" y="-651.88" font-family="monospace" font-size="10.00">owns</text>
</g>
<!-- cargo_modules::colors -->
<g id="node3" class="node">
<title>cargo_modules::colors</title>
<polygon fill="#f8c04c" stroke="black" points="248.48,-593.1 248.48,-637.6 348.48,-637.6 348.48,-593.1 248.48,-593.1"/>
<text text-anchor="middle" x="298.48" y="-624.1" font-family="monospace" font-size="10.00">pub(crate) mod</text>
<polyline fill="none" stroke="black" points="248.48,-615.35 348.48,-615.35"/>
<text text-anchor="middle" x="298.48" y="-601.85" font-family="monospace" font-size="10.00">colors</text>
</g>
<!-- cargo_modules&#45;&gt;cargo_modules::colors -->
<g id="edge2" class="edge">
<title>cargo_modules&#45;&gt;cargo_modules::colors</title>
<path fill="none" stroke="#000000" d="M436.83,-686.42C411.48,-673.39 379.45,-656.94 352.59,-643.15"/>
<polygon fill="#000000" stroke="#000000" points="354.42,-640.15 343.92,-638.69 351.22,-646.37 354.42,-640.15"/>
<text text-anchor="middle" x="382.71" y="-669.53" font-family="monospace" font-size="10.00">owns</text>
</g>
<!-- cargo_modules::command -->
<g id="node5" class="node">
<title>cargo_modules::command</title>
<polygon fill="#81c169" stroke="black" points="718.38,-673.54 718.38,-718.04 776.38,-718.04 776.38,-673.54 718.38,-673.54"/>
<text text-anchor="middle" x="747.38" y="-704.54" font-family="monospace" font-size="10.00">pub mod</text>
<polyline fill="none" stroke="black" points="718.38,-695.79 776.38,-695.79"/>
<text text-anchor="middle" x="747.38" y="-682.29" font-family="monospace" font-size="10.00">command</text>
</g>
<!-- cargo_modules&#45;&gt;cargo_modules::command -->
<g id="edge3" class="edge">
<title>cargo_modules&#45;&gt;cargo_modules::command</title>
<path fill="none" stroke="#000000" d="M528.33,-706.75C579.05,-704.21 658.72,-700.23 706.72,-697.83"/>
<polygon fill="#000000" stroke="#000000" points="706.87,-701.32 716.69,-697.33 706.52,-694.33 706.87,-701.32"/>
<text text-anchor="middle" x="605.53" y="-707.04" font-family="monospace" font-size="10.00">owns</text>
</g>
<!-- cargo_modules::graph -->
<g id="node27" class="node">
<title>cargo_modules::graph</title>
<polygon fill="#f8c04c" stroke="black" points="304.48,-462.98 304.48,-507.48 404.48,-507.48 404.48,-462.98 304.48,-462.98"/>
<text text-anchor="middle" x="354.48" y="-493.98" font-family="monospace" font-size="10.00">pub(crate) mod</text>
<polyline fill="none" stroke="black" points="304.48,-485.23 404.48,-485.23"/>
<text text-anchor="middle" x="354.48" y="-471.73" font-family="monospace" font-size="10.00">graph</text>
</g>
<!-- cargo_modules&#45;&gt;cargo_modules::graph -->
<g id="edge4" class="edge">
<title>cargo_modules&#45;&gt;cargo_modules::graph</title>
<path fill="none" stroke="#000000" d="M468.19,-686.42C445.59,-646.42 398.6,-563.29 372.66,-517.39"/>
<polygon fill="#000000" stroke="#000000" points="375.87,-515.95 367.9,-508.97 369.78,-519.4 375.87,-515.95"/>
<text text-anchor="middle" x="408.43" y="-606.66" font-family="monospace" font-size="10.00">owns</text>
</g>
<!-- cargo_modules::item -->
<g id="node30" class="node">
<title>cargo_modules::item</title>
<polygon fill="#f8c04c" stroke="black" points="276.66,-901.98 276.66,-946.48 376.66,-946.48 376.66,-901.98 276.66,-901.98"/>
<text text-anchor="middle" x="326.66" y="-932.98" font-family="monospace" font-size="10.00">pub(crate) mod</text>
<polyline fill="none" stroke="black" points="276.66,-924.23 376.66,-924.23"/>
<text text-anchor="middle" x="326.66" y="-910.73" font-family="monospace" font-size="10.00">item</text>
</g>
<!-- cargo_modules&#45;&gt;cargo_modules::item -->
<g id="edge5" class="edge">
<title>cargo_modules&#45;&gt;cargo_modules::item</title>
<path fill="none" stroke="#000000" d="M464.79,-731.73C437.17,-770.22 380.96,-848.55 349.42,-892.5"/>
<polygon fill="#000000" stroke="#000000" points="346.77,-890.2 343.78,-900.36 352.46,-894.28 346.77,-890.2"/>
<text text-anchor="middle" x="395.11" y="-816.87" font-family="monospace" font-size="10.00">owns</text>
</g>
<!-- cargo_modules::options -->
<g id="node35" class="node">
<title>cargo_modules::options</title>
<polygon fill="#81c169" stroke="black" points="465.21,-823.84 465.21,-868.34 523.21,-868.34 523.21,-823.84 465.21,-823.84"/>
<text text-anchor="middle" x="494.21" y="-854.84" font-family="monospace" font-size="10.00">pub mod</text>
<polyline fill="none" stroke="black" points="465.21,-846.09 523.21,-846.09"/>
<text text-anchor="middle" x="494.21" y="-832.59" font-family="monospace" font-size="10.00">options</text>
</g>
<!-- cargo_modules&#45;&gt;cargo_modules::options -->
<g id="edge6" class="edge">
<title>cargo_modules&#45;&gt;cargo_modules::options</title>
<path fill="none" stroke="#000000" d="M483.2,-731.74C485.31,-753.65 488.53,-787.15 490.95,-812.23"/>
<polygon fill="#000000" stroke="#000000" points="487.44,-812.32 491.88,-821.93 494.41,-811.64 487.44,-812.32"/>
<text text-anchor="middle" x="475.07" y="-776.73" font-family="monospace" font-size="10.00">owns</text>
</g>
<!-- cargo_modules::tree -->
<g id="node36" class="node">
<title>cargo_modules::tree</title>
<polygon fill="#f8c04c" stroke="black" points="240.57,-715.15 240.57,-759.65 340.57,-759.65 340.57,-715.15 240.57,-715.15"/>
<text text-anchor="middle" x="290.57" y="-746.15" font-family="monospace" font-size="10.00">pub(crate) mod</text>
<polyline fill="none" stroke="black" points="240.57,-737.4 340.57,-737.4"/>
<text text-anchor="middle" x="290.57" y="-723.9" font-family="monospace" font-size="10.00">tree</text>
</g>
<!-- cargo_modules&#45;&gt;cargo_modules::tree -->
<g id="edge7" class="edge">
<title>cargo_modules&#45;&gt;cargo_modules::tree</title>
<path fill="none" stroke="#000000" d="M433.94,-716.11C409.17,-719.79 378.51,-724.34 351.9,-728.29"/>
<polygon fill="#000000" stroke="#000000" points="351.65,-724.79 342.27,-729.72 352.68,-731.71 351.65,-724.79"/>
<text text-anchor="middle" x="380.92" y="-726.95" font-family="monospace" font-size="10.00">owns</text>
</g>
<!-- cargo_modules::colors::cli -->
<g id="node4" class="node">
<title>cargo_modules::colors::cli</title>
<polygon fill="#f8c04c" stroke="black" points="22.5,-509.69 22.5,-554.19 122.5,-554.19 122.5,-509.69 22.5,-509.69"/>
<text text-anchor="middle" x="72.5" y="-540.69" font-family="monospace" font-size="10.00">pub(crate) mod</text>
<polyline fill="none" stroke="black" points="22.5,-531.94 122.5,-531.94"/>
<text text-anchor="middle" x="72.5" y="-518.44" font-family="monospace" font-size="10.00">colors::cli</text>
</g>
<!-- cargo_modules::colors&#45;&gt;cargo_modules::colors::cli -->
<g id="edge8" class="edge">
<title>cargo_modules::colors&#45;&gt;cargo_modules::colors::cli</title>
<path fill="none" stroke="#000000" d="M248.05,-596.73C214.07,-584.19 169.07,-567.59 133.13,-554.32"/>
<polygon fill="#000000" stroke="#000000" points="134.79,-551.2 124.2,-551.03 132.37,-557.77 134.79,-551.2"/>
<text text-anchor="middle" x="178.59" y="-580.28" font-family="monospace" font-size="10.00">owns</text>
</g>
<!-- cargo_modules::command::dependencies -->
<g id="node6" class="node">
<title>cargo_modules::command::dependencies</title>
<polygon fill="#81c169" stroke="black" points="728.2,-424.59 728.2,-469.09 870.2,-469.09 870.2,-424.59 728.2,-424.59"/>
<text text-anchor="middle" x="799.2" y="-455.59" font-family="monospace" font-size="10.00">pub mod</text>
<polyline fill="none" stroke="black" points="728.2,-446.84 870.2,-446.84"/>
<text text-anchor="middle" x="799.2" y="-433.34" font-family="monospace" font-size="10.00">command::dependencies</text>
</g>
<!-- cargo_modules::command&#45;&gt;cargo_modules::command::dependencies -->
<g id="edge9" class="edge">
<title>cargo_modules::command&#45;&gt;cargo_modules::command::dependencies</title>
<path fill="none" stroke="#000000" d="M752.07,-673.26C761.2,-629.4 781.4,-532.34 792.15,-480.7"/>
<polygon fill="#000000" stroke="#000000" points="795.56,-481.49 794.17,-470.99 788.71,-480.06 795.56,-481.49"/>
<text text-anchor="middle" x="760.11" y="-581.73" font-family="monospace" font-size="10.00">owns</text>
</g>
<!-- cargo_modules::command::orphans -->
<g id="node14" class="node">
<title>cargo_modules::command::orphans</title>
<polygon fill="#81c169" stroke="black" points="759.01,-918.81 759.01,-963.31 871.01,-963.31 871.01,-918.81 759.01,-918.81"/>
<text text-anchor="middle" x="815.01" y="-949.81" font-family="monospace" font-size="10.00">pub mod</text>
<polyline fill="none" stroke="black" points="759.01,-941.06 871.01,-941.06"/>
<text text-anchor="middle" x="815.01" y="-927.56" font-family="monospace" font-size="10.00">command::orphans</text>
</g>
<!-- cargo_modules::command&#45;&gt;cargo_modules::command::orphans -->
<g id="edge10" class="edge">
<title>cargo_modules::command&#45;&gt;cargo_modules::command::orphans</title>
<path fill="none" stroke="#000000" d="M753.62,-718.43C765.57,-761.77 791.75,-856.7 805.75,-907.46"/>
<polygon fill="#000000" stroke="#000000" points="802.35,-908.31 808.38,-917.02 809.1,-906.45 802.35,-908.31"/>
<text text-anchor="middle" x="767.68" y="-817.69" font-family="monospace" font-size="10.00">owns</text>
</g>
<!-- cargo_modules::command::structure -->
<g id="node21" class="node">
<title>cargo_modules::command::structure</title>
<polygon fill="#81c169" stroke="black" points="916.64,-666.99 916.64,-711.49 1040.64,-711.49 1040.64,-666.99 916.64,-666.99"/>
<text text-anchor="middle" x="978.64" y="-697.99" font-family="monospace" font-size="10.00">pub mod</text>
<polyline fill="none" stroke="black" points="916.64,-689.24 1040.64,-689.24"/>
<text text-anchor="middle" x="978.64" y="-675.74" font-family="monospace" font-size="10.00">command::structure</text>
</g>
<!-- cargo_modules::command&#45;&gt;cargo_modules::command::structure -->
<g id="edge11" class="edge">
<title>cargo_modules::command&#45;&gt;cargo_modules::command::structure</title>
<path fill="none" stroke="#000000" d="M776.67,-694.96C808.8,-694.05 861.6,-692.56 905.16,-691.32"/>
<polygon fill="#000000" stroke="#000000" points="905.18,-694.82 915.08,-691.04 904.98,-687.83 905.18,-694.82"/>
<text text-anchor="middle" x="828.91" y="-697.89" font-family="monospace" font-size="10.00">owns</text>
</g>
<!-- cargo_modules::command::dependencies::command -->
<g id="node7" class="node">
<title>cargo_modules::command::dependencies::command</title>
<polygon fill="#f8c04c" stroke="black" points="501.86,-208.55 501.86,-253.05 697.86,-253.05 697.86,-208.55 501.86,-208.55"/>
<text text-anchor="middle" x="599.86" y="-239.55" font-family="monospace" font-size="10.00">pub(crate) mod</text>
<polyline fill="none" stroke="black" points="501.86,-230.8 697.86,-230.8"/>
<text text-anchor="middle" x="599.86" y="-217.3" font-family="monospace" font-size="10.00">command::dependencies::command</text>
</g>
<!-- cargo_modules::command::dependencies&#45;&gt;cargo_modules::command::dependencies::command -->
<g id="edge12" class="edge">
<title>cargo_modules::command::dependencies&#45;&gt;cargo_modules::command::dependencies::command</title>
<path fill="none" stroke="#000000" d="M778.24,-424.13C742.35,-385.23 669.07,-305.81 628.5,-261.83"/>
<polygon fill="#000000" stroke="#000000" points="631.22,-259.62 621.86,-254.64 626.07,-264.37 631.22,-259.62"/>
<text text-anchor="middle" x="715.37" y="-333.48" font-family="monospace" font-size="10.00">owns</text>
</g>
<!-- cargo_modules::command::dependencies::cycles -->
<g id="node8" class="node">
<title>cargo_modules::command::dependencies::cycles</title>
<polygon fill="#fe9454" stroke="black" points="910.23,-188.53 910.23,-233.03 1100.23,-233.03 1100.23,-188.53 910.23,-188.53"/>
<text text-anchor="middle" x="1005.23" y="-219.53" font-family="monospace" font-size="10.00">pub(super) mod</text>
<polyline fill="none" stroke="black" points="910.23,-210.78 1100.23,-210.78"/>
<text text-anchor="middle" x="1005.23" y="-197.28" font-family="monospace" font-size="10.00">command::dependencies::cycles</text>
</g>
<!-- cargo_modules::command::dependencies&#45;&gt;cargo_modules::command::dependencies::cycles -->
<g id="edge13" class="edge">
<title>cargo_modules::command::dependencies&#45;&gt;cargo_modules::command::dependencies::cycles</title>
<path fill="none" stroke="#000000" d="M818.95,-424.21C856.03,-381.73 936.07,-290.02 978.14,-241.82"/>
<polygon fill="#000000" stroke="#000000" points="980.6,-244.32 984.54,-234.48 975.33,-239.72 980.6,-244.32"/>
<text text-anchor="middle" x="886.55" y="-337.76" font-family="monospace" font-size="10.00">owns</text>
</g>
<!-- cargo_modules::command::dependencies::filter -->
<g id="node10" class="node">
<title>cargo_modules::command::dependencies::filter</title>
<polygon fill="#fe9454" stroke="black" points="866.07,-315.39 866.07,-359.89 1056.07,-359.89 1056.07,-315.39 866.07,-315.39"/>
<text text-anchor="middle" x="961.07" y="-346.39" font-family="monospace" font-size="10.00">pub(super) mod</text>
<polyline fill="none" stroke="black" points="866.07,-337.64 1056.07,-337.64"/>
<text text-anchor="middle" x="961.07" y="-324.14" font-family="monospace" font-size="10.00">command::dependencies::filter</text>
</g>
<!-- cargo_modules::command::dependencies&#45;&gt;cargo_modules::command::dependencies::filter -->
<g id="edge14" class="edge">
<title>cargo_modules::command::dependencies&#45;&gt;cargo_modules::command::dependencies::filter</title>
<path fill="none" stroke="#000000" d="M832.74,-424.22C857.48,-407.52 891.35,-384.67 918.08,-366.64"/>
<polygon fill="#000000" stroke="#000000" points="919.99,-369.58 926.32,-361.08 916.07,-363.77 919.99,-369.58"/>
<text text-anchor="middle" x="863.41" y="-400.18" font-family="monospace" font-size="10.00">owns</text>
</g>
<!-- cargo_modules::command::dependencies::options -->
<g id="node11" class="node">
<title>cargo_modules::command::dependencies::options</title>
<polygon fill="#81c169" stroke="black" points="706.05,-218.03 706.05,-262.53 902.05,-262.53 902.05,-218.03 706.05,-218.03"/>
<text text-anchor="middle" x="804.05" y="-249.03" font-family="monospace" font-size="10.00">pub mod</text>
<polyline fill="none" stroke="black" points="706.05,-240.28 902.05,-240.28"/>
<text text-anchor="middle" x="804.05" y="-226.78" font-family="monospace" font-size="10.00">command::dependencies::options</text>
</g>
<!-- cargo_modules::command::dependencies&#45;&gt;cargo_modules::command::dependencies::options -->
<g id="edge15" class="edge">
<title>cargo_modules::command::dependencies&#45;&gt;cargo_modules::command::dependencies::options</title>
<path fill="none" stroke="#000000" d="M799.72,-424.34C800.58,-388.1 802.25,-316.58 803.25,-274.15"/>
<polygon fill="#000000" stroke="#000000" points="806.75,-274.34 803.48,-264.26 799.75,-274.18 806.75,-274.34"/>
<text text-anchor="middle" x="789.49" y="-354" font-family="monospace" font-size="10.00">owns</text>
</g>
<!-- cargo_modules::command::dependencies::printer -->
<g id="node12" class="node">
<title>cargo_modules::command::dependencies::printer</title>
<polygon fill="#fe9454" stroke="black" points="518.5,-314.05 518.5,-358.55 714.5,-358.55 714.5,-314.05 518.5,-314.05"/>
<text text-anchor="middle" x="616.5" y="-345.05" font-family="monospace" font-size="10.00">pub(super) mod</text>
<polyline fill="none" stroke="black" points="518.5,-336.3 714.5,-336.3"/>
<text text-anchor="middle" x="616.5" y="-322.8" font-family="monospace" font-size="10.00">command::dependencies::printer</text>
</g>
<!-- cargo_modules::command::dependencies&#45;&gt;cargo_modules::command::dependencies::printer -->
<g id="edge16" class="edge">
<title>cargo_modules::command::dependencies&#45;&gt;cargo_modules::command::dependencies::printer</title>
<path fill="none" stroke="#000000" d="M761.78,-424.21C733.34,-406.99 694.01,-383.2 663.45,-364.71"/>
<polygon fill="#000000" stroke="#000000" points="665.52,-361.87 655.16,-359.69 661.9,-367.86 665.52,-361.87"/>
<text text-anchor="middle" x="700.62" y="-399.21" font-family="monospace" font-size="10.00">owns</text>
</g>
<!-- cargo_modules::command::dependencies::theme -->
<g id="node13" class="node">
<title>cargo_modules::command::dependencies::theme</title>
<polygon fill="#fe9454" stroke="black" points="929.23,-383.47 929.23,-427.97 1113.23,-427.97 1113.23,-383.47 929.23,-383.47"/>
<text text-anchor="middle" x="1021.23" y="-414.47" font-family="monospace" font-size="10.00">pub(super) mod</text>
<polyline fill="none" stroke="black" points="929.23,-405.72 1113.23,-405.72"/>
<text text-anchor="middle" x="1021.23" y="-392.22" font-family="monospace" font-size="10.00">command::dependencies::theme</text>
</g>
<!-- cargo_modules::command::dependencies&#45;&gt;cargo_modules::command::dependencies::theme -->
<g id="edge17" class="edge">
<title>cargo_modules::command::dependencies&#45;&gt;cargo_modules::command::dependencies::theme</title>
<path fill="none" stroke="#000000" d="M870.67,-433.6C885.71,-430.82 901.86,-427.83 917.81,-424.87"/>
<polygon fill="#000000" stroke="#000000" points="918.11,-428.38 927.31,-423.12 916.83,-421.5 918.11,-428.38"/>
<text text-anchor="middle" x="882.24" y="-433.99" font-family="monospace" font-size="10.00">owns</text>
</g>
<!-- cargo_modules::command::dependencies::cycles::tri_color -->
<g id="node9" class="node">
<title>cargo_modules::command::dependencies::cycles::tri_color</title>
<polygon fill="#81c169" stroke="black" points="915.06,-0.5 915.06,-45 1171.06,-45 1171.06,-0.5 915.06,-0.5"/>
<text text-anchor="middle" x="1043.06" y="-31.5" font-family="monospace" font-size="10.00">pub mod</text>
<polyline fill="none" stroke="black" points="915.06,-22.75 1171.06,-22.75"/>
<text text-anchor="middle" x="1043.06" y="-9.25" font-family="monospace" font-size="10.00">command::dependencies::cycles::tri_color</text>
</g>
<!-- cargo_modules::command::dependencies::cycles&#45;&gt;cargo_modules::command::dependencies::cycles::tri_color -->
<g id="edge18" class="edge">
<title>cargo_modules::command::dependencies::cycles&#45;&gt;cargo_modules::command::dependencies::cycles::tri_color</title>
<path fill="none" stroke="#000000" d="M1009.79,-188.1C1016.4,-155.26 1028.68,-94.25 1036.33,-56.22"/>
<polygon fill="#000000" stroke="#000000" points="1039.7,-57.2 1038.24,-46.7 1032.84,-55.82 1039.7,-57.2"/>
<text text-anchor="middle" x="1011.06" y="-126.91" font-family="monospace" font-size="10.00">owns</text>
</g>
<!-- cargo_modules::command::orphans::command -->
<g id="node15" class="node">
<title>cargo_modules::command::orphans::command</title>
<polygon fill="#fe9454" stroke="black" points="890.79,-1108.43 890.79,-1152.93 1056.79,-1152.93 1056.79,-1108.43 890.79,-1108.43"/>
<text text-anchor="middle" x="973.79" y="-1139.43" font-family="monospace" font-size="10.00">pub(super) mod</text>
<polyline fill="none" stroke="black" points="890.79,-1130.68 1056.79,-1130.68"/>
<text text-anchor="middle" x="973.79" y="-1117.18" font-family="monospace" font-size="10.00">command::orphans::command</text>
</g>
<!-- cargo_modules::command::orphans&#45;&gt;cargo_modules::command::orphans::command -->
<g id="edge19" class="edge">
<title>cargo_modules::command::orphans&#45;&gt;cargo_modules::command::orphans::command</title>
<path fill="none" stroke="#000000" d="M833.85,-963.55C862.14,-997.34 915.69,-1061.29 947.72,-1099.54"/>
<polygon fill="#000000" stroke="#000000" points="944.9,-1101.63 954.01,-1107.05 950.27,-1097.14 944.9,-1101.63"/>
<text text-anchor="middle" x="878.78" y="-1036.3" font-family="monospace" font-size="10.00">owns</text>
</g>
<!-- cargo_modules::command::orphans::options -->
<g id="node16" class="node">
<title>cargo_modules::command::orphans::options</title>
<polygon fill="#f8c04c" stroke="black" points="913.9,-946.46 913.9,-990.96 1079.9,-990.96 1079.9,-946.46 913.9,-946.46"/>
<text text-anchor="middle" x="996.9" y="-977.46" font-family="monospace" font-size="10.00">pub(crate) mod</text>
<polyline fill="none" stroke="black" points="913.9,-968.71 1079.9,-968.71"/>
<text text-anchor="middle" x="996.9" y="-955.21" font-family="monospace" font-size="10.00">command::orphans::options</text>
</g>
<!-- cargo_modules::command::orphans&#45;&gt;cargo_modules::command::orphans::options -->
<g id="edge20" class="edge">
<title>cargo_modules::command::orphans&#45;&gt;cargo_modules::command::orphans::options</title>
<path fill="none" stroke="#000000" d="M871.07,-949.58C881.06,-951.1 891.72,-952.72 902.44,-954.35"/>
<polygon fill="#000000" stroke="#000000" points="901.7,-957.78 912.11,-955.82 902.75,-950.86 901.7,-957.78"/>
<text text-anchor="middle" x="898.75" y="-956.71" font-family="monospace" font-size="10.00">owns</text>
</g>
<!-- cargo_modules::command::orphans::orphan -->
<g id="node17" class="node">
<title>cargo_modules::command::orphans::orphan</title>
<polygon fill="#f8c04c" stroke="black" points="969.5,-1048.03 969.5,-1092.53 1129.5,-1092.53 1129.5,-1048.03 969.5,-1048.03"/>
<text text-anchor="middle" x="1049.5" y="-1079.03" font-family="monospace" font-size="10.00">pub(crate) mod</text>
<polyline fill="none" stroke="black" points="969.5,-1070.28 1129.5,-1070.28"/>
<text text-anchor="middle" x="1049.5" y="-1056.78" font-family="monospace" font-size="10.00">command::orphans::orphan</text>
</g>
<!-- cargo_modules::command::orphans&#45;&gt;cargo_modules::command::orphans::orphan -->
<g id="edge21" class="edge">
<title>cargo_modules::command::orphans&#45;&gt;cargo_modules::command::orphans::orphan</title>
<path fill="none" stroke="#000000" d="M856.12,-963.71C895.77,-985.56 955.86,-1018.68 998.53,-1042.19"/>
<polygon fill="#000000" stroke="#000000" points="996.66,-1045.16 1007.11,-1046.92 1000.04,-1039.03 996.66,-1045.16"/>
<text text-anchor="middle" x="915.33" y="-1007.7" font-family="monospace" font-size="10.00">owns</text>
</g>
<!-- cargo_modules::command::orphans::printer -->
<g id="node18" class="node">
<title>cargo_modules::command::orphans::printer</title>
<polygon fill="#f8c04c" stroke="black" points="757.58,-1161.99 757.58,-1206.49 923.58,-1206.49 923.58,-1161.99 757.58,-1161.99"/>
<text text-anchor="middle" x="840.58" y="-1192.99" font-family="monospace" font-size="10.00">pub(crate) mod</text>
<polyline fill="none" stroke="black" points="757.58,-1184.24 923.58,-1184.24"/>
<text text-anchor="middle" x="840.58" y="-1170.74" font-family="monospace" font-size="10.00">command::orphans::printer</text>
</g>
<!-- cargo_modules::command::orphans&#45;&gt;cargo_modules::command::orphans::printer -->
<g id="edge22" class="edge">
<title>cargo_modules::command::orphans&#45;&gt;cargo_modules::command::orphans::printer</title>
<path fill="none" stroke="#000000" d="M817.37,-963.5C821.87,-1006.28 831.69,-1099.72 837,-1150.22"/>
<polygon fill="#000000" stroke="#000000" points="833.5,-1150.41 838.03,-1159.99 840.46,-1149.68 833.5,-1150.41"/>
<text text-anchor="middle" x="815.19" y="-1061.61" font-family="monospace" font-size="10.00">owns</text>
</g>
<!-- cargo_modules::command::orphans::scanner -->
<g id="node19" class="node">
<title>cargo_modules::command::orphans::scanner</title>
<polygon fill="#f8c04c" stroke="black" points="569.82,-1037.73 569.82,-1082.23 735.82,-1082.23 735.82,-1037.73 569.82,-1037.73"/>
<text text-anchor="middle" x="652.82" y="-1068.73" font-family="monospace" font-size="10.00">pub(crate) mod</text>
<polyline fill="none" stroke="black" points="569.82,-1059.98 735.82,-1059.98"/>
<text text-anchor="middle" x="652.82" y="-1046.48" font-family="monospace" font-size="10.00">command::orphans::scanner</text>
</g>
<!-- cargo_modules::command::orphans&#45;&gt;cargo_modules::command::orphans::scanner -->
<g id="edge23" class="edge">
<title>cargo_modules::command::orphans&#45;&gt;cargo_modules::command::orphans::scanner</title>
<path fill="none" stroke="#000000" d="M784.12,-963.7C758.19,-982.71 720.97,-1010 692.78,-1030.68"/>
<polygon fill="#000000" stroke="#000000" points="690.81,-1027.78 684.81,-1036.52 694.95,-1033.43 690.81,-1027.78"/>
<text text-anchor="middle" x="726.45" y="-1001.94" font-family="monospace" font-size="10.00">owns</text>
</g>
<!-- cargo_modules::command::orphans::theme -->
<g id="node20" class="node">
<title>cargo_modules::command::orphans::theme</title>
<polygon fill="#f8c04c" stroke="black" points="595.55,-1133.57 595.55,-1178.07 749.55,-1178.07 749.55,-1133.57 595.55,-1133.57"/>
<text text-anchor="middle" x="672.55" y="-1164.57" font-family="monospace" font-size="10.00">pub(crate) mod</text>
<polyline fill="none" stroke="black" points="595.55,-1155.82 749.55,-1155.82"/>
<text text-anchor="middle" x="672.55" y="-1142.32" font-family="monospace" font-size="10.00">command::orphans::theme</text>
</g>
<!-- cargo_modules::command::orphans&#45;&gt;cargo_modules::command::orphans::theme -->
<g id="edge24" class="edge">
<title>cargo_modules::command::orphans&#45;&gt;cargo_modules::command::orphans::theme</title>
<path fill="none" stroke="#000000" d="M800.04,-963.63C774.6,-1001.98 722.88,-1079.94 693.74,-1123.87"/>
<polygon fill="#000000" stroke="#000000" points="690.99,-1121.69 688.38,-1131.96 696.82,-1125.56 690.99,-1121.69"/>
<text text-anchor="middle" x="758.89" y="-1048.5" font-family="monospace" font-size="10.00">owns</text>
</g>
<!-- cargo_modules::command::structure::command -->
<g id="node22" class="node">
<title>cargo_modules::command::structure::command</title>
<polygon fill="#fe9454" stroke="black" points="958.33,-802.24 958.33,-846.74 1136.33,-846.74 1136.33,-802.24 958.33,-802.24"/>
<text text-anchor="middle" x="1047.33" y="-833.24" font-family="monospace" font-size="10.00">pub(super) mod</text>
<polyline fill="none" stroke="black" points="958.33,-824.49 1136.33,-824.49"/>
<text text-anchor="middle" x="1047.33" y="-810.99" font-family="monospace" font-size="10.00">command::structure::command</text>
</g>
<!-- cargo_modules::command::structure&#45;&gt;cargo_modules::command::structure::command -->
<g id="edge25" class="edge">
<title>cargo_modules::command::structure&#45;&gt;cargo_modules::command::structure::command</title>
<path fill="none" stroke="#000000" d="M990.14,-711.88C1001.23,-733.72 1018.15,-767.03 1030.71,-791.76"/>
<polygon fill="#000000" stroke="#000000" points="1027.46,-793.1 1035.11,-800.43 1033.7,-789.93 1027.46,-793.1"/>
<text text-anchor="middle" x="998.42" y="-756.57" font-family="monospace" font-size="10.00">owns</text>
</g>
<!-- cargo_modules::command::structure::filter -->
<g id="node23" class="node">
<title>cargo_modules::command::structure::filter</title>
<polygon fill="#fe9454" stroke="black" points="1142.21,-693.45 1142.21,-737.95 1314.21,-737.95 1314.21,-693.45 1142.21,-693.45"/>
<text text-anchor="middle" x="1228.21" y="-724.45" font-family="monospace" font-size="10.00">pub(super) mod</text>
<polyline fill="none" stroke="black" points="1142.21,-715.7 1314.21,-715.7"/>
<text text-anchor="middle" x="1228.21" y="-702.2" font-family="monospace" font-size="10.00">command::structure::filter</text>
</g>
<!-- cargo_modules::command::structure&#45;&gt;cargo_modules::command::structure::filter -->
<g id="edge26" class="edge">
<title>cargo_modules::command::structure&#45;&gt;cargo_modules::command::structure::filter</title>
<path fill="none" stroke="#000000" d="M1040.98,-695.85C1067.99,-698.71 1100.26,-702.13 1130.34,-705.32"/>
<polygon fill="#000000" stroke="#000000" points="1129.93,-708.8 1140.24,-706.37 1130.67,-701.84 1129.93,-708.8"/>
<text text-anchor="middle" x="1073.66" y="-705.34" font-family="monospace" font-size="10.00">owns</text>
</g>
<!-- cargo_modules::command::structure::options -->
<g id="node24" class="node">
<title>cargo_modules::command::structure::options</title>
<polygon fill="#81c169" stroke="black" points="1115.98,-579.04 1115.98,-623.54 1293.98,-623.54 1293.98,-579.04 1115.98,-579.04"/>
<text text-anchor="middle" x="1204.98" y="-610.04" font-family="monospace" font-size="10.00">pub mod</text>
<polyline fill="none" stroke="black" points="1115.98,-601.29 1293.98,-601.29"/>
<text text-anchor="middle" x="1204.98" y="-587.79" font-family="monospace" font-size="10.00">command::structure::options</text>
</g>
<!-- cargo_modules::command::structure&#45;&gt;cargo_modules::command::structure::options -->
<g id="edge27" class="edge">
<title>cargo_modules::command::structure&#45;&gt;cargo_modules::command::structure::options</title>
<path fill="none" stroke="#000000" d="M1036.93,-666.59C1067.17,-654.84 1104.32,-640.41 1135.98,-628.1"/>
<polygon fill="#000000" stroke="#000000" points="1137.03,-631.45 1145.08,-624.57 1134.5,-624.93 1137.03,-631.45"/>
<text text-anchor="middle" x="1074.46" y="-652.1" font-family="monospace" font-size="10.00">owns</text>
</g>
<!-- cargo_modules::command::structure::printer -->
<g id="node25" class="node">
<title>cargo_modules::command::structure::printer</title>
<polygon fill="#f8c04c" stroke="black" points="1144.5,-824.34 1144.5,-868.84 1322.5,-868.84 1322.5,-824.34 1144.5,-824.34"/>
<text text-anchor="middle" x="1233.5" y="-855.34" font-family="monospace" font-size="10.00">pub(crate) mod</text>
<polyline fill="none" stroke="black" points="1144.5,-846.59 1322.5,-846.59"/>
<text text-anchor="middle" x="1233.5" y="-833.09" font-family="monospace" font-size="10.00">command::structure::printer</text>
</g>
<!-- cargo_modules::command::structure&#45;&gt;cargo_modules::command::structure::printer -->
<g id="edge28" class="edge">
<title>cargo_modules::command::structure&#45;&gt;cargo_modules::command::structure::printer</title>
<path fill="none" stroke="#000000" d="M1015.43,-711.95C1060.7,-739.9 1137.6,-787.38 1186.94,-817.85"/>
<polygon fill="#000000" stroke="#000000" points="1185.09,-820.82 1195.44,-823.09 1188.77,-814.86 1185.09,-820.82"/>
<text text-anchor="middle" x="1089.18" y="-769.65" font-family="monospace" font-size="10.00">owns</text>
</g>
<!-- cargo_modules::command::structure::theme -->
<g id="node26" class="node">
<title>cargo_modules::command::structure::theme</title>
<polygon fill="#fe9454" stroke="black" points="1041.47,-506.33 1041.47,-550.83 1207.47,-550.83 1207.47,-506.33 1041.47,-506.33"/>
<text text-anchor="middle" x="1124.47" y="-537.33" font-family="monospace" font-size="10.00">pub(super) mod</text>
<polyline fill="none" stroke="black" points="1041.47,-528.58 1207.47,-528.58"/>
<text text-anchor="middle" x="1124.47" y="-515.08" font-family="monospace" font-size="10.00">command::structure::theme</text>
</g>
<!-- cargo_modules::command::structure&#45;&gt;cargo_modules::command::structure::theme -->
<g id="edge29" class="edge">
<title>cargo_modules::command::structure&#45;&gt;cargo_modules::command::structure::theme</title>
<path fill="none" stroke="#000000" d="M999.23,-666.56C1024.63,-638.57 1067.95,-590.85 1096.39,-559.52"/>
<polygon fill="#000000" stroke="#000000" points="1098.84,-562.02 1102.97,-552.27 1093.66,-557.32 1098.84,-562.02"/>
<text text-anchor="middle" x="1035.81" y="-617.79" font-family="monospace" font-size="10.00">owns</text>
</g>
<!-- cargo_modules::graph::builder -->
<g id="node28" class="node">
<title>cargo_modules::graph::builder</title>
<polygon fill="#db5367" stroke="black" points="102.06,-351.66 102.06,-396.16 202.06,-396.16 202.06,-351.66 102.06,-351.66"/>
<text text-anchor="middle" x="152.06" y="-382.66" font-family="monospace" font-size="10.00">pub(self) mod</text>
<polyline fill="none" stroke="black" points="102.06,-373.91 202.06,-373.91"/>
<text text-anchor="middle" x="152.06" y="-360.41" font-family="monospace" font-size="10.00">graph::builder</text>
</g>
<!-- cargo_modules::graph&#45;&gt;cargo_modules::graph::builder -->
<g id="edge30" class="edge">
<title>cargo_modules::graph&#45;&gt;cargo_modules::graph::builder</title>
<path fill="none" stroke="#000000" d="M313.52,-462.7C281.66,-445.18 237.28,-420.77 203.11,-401.98"/>
<polygon fill="#000000" stroke="#000000" points="205.09,-399.08 194.64,-397.32 201.71,-405.21 205.09,-399.08"/>
<text text-anchor="middle" x="246.31" y="-437.09" font-family="monospace" font-size="10.00">owns</text>
</g>
<!-- cargo_modules::graph::walker -->
<g id="node29" class="node">
<title>cargo_modules::graph::walker</title>
<polygon fill="#db5367" stroke="black" points="227.81,-250.15 227.81,-294.65 321.81,-294.65 321.81,-250.15 227.81,-250.15"/>
<text text-anchor="middle" x="274.81" y="-281.15" font-family="monospace" font-size="10.00">pub(self) mod</text>
<polyline fill="none" stroke="black" points="227.81,-272.4 321.81,-272.4"/>
<text text-anchor="middle" x="274.81" y="-258.9" font-family="monospace" font-size="10.00">graph::walker</text>
</g>
<!-- cargo_modules::graph&#45;&gt;cargo_modules::graph::walker -->
<g id="edge31" class="edge">
<title>cargo_modules::graph&#45;&gt;cargo_modules::graph::walker</title>
<path fill="none" stroke="#000000" d="M346.11,-462.85C332.07,-425.35 303.71,-349.61 287.31,-305.79"/>
<polygon fill="#000000" stroke="#000000" points="290.63,-304.67 283.84,-296.53 284.07,-307.13 290.63,-304.67"/>
<text text-anchor="middle" x="304.71" y="-389.07" font-family="monospace" font-size="10.00">owns</text>
</g>
<!-- cargo_modules::item::attr -->
<g id="node31" class="node">
<title>cargo_modules::item::attr</title>
<polygon fill="#db5367" stroke="black" points="183.1,-1100.63 183.1,-1145.13 277.1,-1145.13 277.1,-1100.63 183.1,-1100.63"/>
<text text-anchor="middle" x="230.1" y="-1131.63" font-family="monospace" font-size="10.00">pub(self) mod</text>
<polyline fill="none" stroke="black" points="183.1,-1122.88 277.1,-1122.88"/>
<text text-anchor="middle" x="230.1" y="-1109.38" font-family="monospace" font-size="10.00">item::attr</text>
</g>
<!-- cargo_modules::item&#45;&gt;cargo_modules::item::attr -->
<g id="edge32" class="edge">
<title>cargo_modules::item&#45;&gt;cargo_modules::item::attr</title>
<path fill="none" stroke="#000000" d="M315.77,-946.63C298.75,-981.65 265.74,-1049.55 246.04,-1090.08"/>
<polygon fill="#000000" stroke="#000000" points="242.98,-1088.37 241.76,-1098.89 249.28,-1091.43 242.98,-1088.37"/>
<text text-anchor="middle" x="268.9" y="-1023.11" font-family="monospace" font-size="10.00">owns</text>
</g>
<!-- cargo_modules::item::kind_display_name -->
<g id="node32" class="node">
<title>cargo_modules::item::kind_display_name</title>
<polygon fill="#db5367" stroke="black" points="285.1,-1123.14 285.1,-1167.64 439.1,-1167.64 439.1,-1123.14 285.1,-1123.14"/>
<text text-anchor="middle" x="362.1" y="-1154.14" font-family="monospace" font-size="10.00">pub(self) mod</text>
<polyline fill="none" stroke="black" points="285.1,-1145.39 439.1,-1145.39"/>
<text text-anchor="middle" x="362.1" y="-1131.89" font-family="monospace" font-size="10.00">item::kind_display_name</text>
</g>
<!-- cargo_modules::item&#45;&gt;cargo_modules::item::kind_display_name -->
<g id="edge33" class="edge">
<title>cargo_modules::item&#45;&gt;cargo_modules::item::kind_display_name</title>
<path fill="none" stroke="#000000" d="M330.25,-946.65C336.5,-985.64 349.4,-1066.14 356.72,-1111.82"/>
<polygon fill="#000000" stroke="#000000" points="353.22,-1112.09 358.26,-1121.41 360.13,-1110.98 353.22,-1112.09"/>
<text text-anchor="middle" x="331.49" y="-1033.98" font-family="monospace" font-size="10.00">owns</text>
</g>
<!-- cargo_modules::item::kind_ordering -->
<g id="node33" class="node">
<title>cargo_modules::item::kind_ordering</title>
<polygon fill="#db5367" stroke="black" points="30.28,-891.08 30.28,-935.58 160.28,-935.58 160.28,-891.08 30.28,-891.08"/>
<text text-anchor="middle" x="95.28" y="-922.08" font-family="monospace" font-size="10.00">pub(self) mod</text>
<polyline fill="none" stroke="black" points="30.28,-913.33 160.28,-913.33"/>
<text text-anchor="middle" x="95.28" y="-899.83" font-family="monospace" font-size="10.00">item::kind_ordering</text>
</g>
<!-- cargo_modules::item&#45;&gt;cargo_modules::item::kind_ordering -->
<g id="edge34" class="edge">
<title>cargo_modules::item&#45;&gt;cargo_modules::item::kind_ordering</title>
<path fill="none" stroke="#000000" d="M276.17,-921.85C245.7,-920.41 206.29,-918.55 172.03,-916.94"/>
<polygon fill="#000000" stroke="#000000" points="172.29,-913.45 162.14,-916.47 171.96,-920.44 172.29,-913.45"/>
<text text-anchor="middle" x="212.1" y="-924.14" font-family="monospace" font-size="10.00">owns</text>
</g>
<!-- cargo_modules::item::visibility -->
<g id="node34" class="node">
<title>cargo_modules::item::visibility</title>
<polygon fill="#db5367" stroke="black" points="79.14,-1012.16 79.14,-1056.66 191.14,-1056.66 191.14,-1012.16 79.14,-1012.16"/>
<text text-anchor="middle" x="135.14" y="-1043.16" font-family="monospace" font-size="10.00">pub(self) mod</text>
<polyline fill="none" stroke="black" points="79.14,-1034.41 191.14,-1034.41"/>
<text text-anchor="middle" x="135.14" y="-1020.91" font-family="monospace" font-size="10.00">item::visibility</text>
</g>
<!-- cargo_modules::item&#45;&gt;cargo_modules::item::visibility -->
<g id="edge35" class="edge">
<title>cargo_modules::item&#45;&gt;cargo_modules::item::visibility</title>
<path fill="none" stroke="#000000" d="M287.44,-946.79C257.59,-963.96 216.32,-987.71 184.27,-1006.15"/>
<polygon fill="#000000" stroke="#000000" points="182.87,-1002.91 175.95,-1010.93 186.36,-1008.98 182.87,-1002.91"/>
<text text-anchor="middle" x="223.85" y="-981.22" font-family="monospace" font-size="10.00">owns</text>
</g>
<!-- cargo_modules::tree::builder -->
<g id="node37" class="node">
<title>cargo_modules::tree::builder</title>
<polygon fill="#db5367" stroke="black" points="0,-699.09 0,-743.59 94,-743.59 94,-699.09 0,-699.09"/>
<text text-anchor="middle" x="47" y="-730.09" font-family="monospace" font-size="10.00">pub(self) mod</text>
<polyline fill="none" stroke="black" points="0,-721.34 94,-721.34"/>
<text text-anchor="middle" x="47" y="-707.84" font-family="monospace" font-size="10.00">tree::builder</text>
</g>
<!-- cargo_modules::tree&#45;&gt;cargo_modules::tree::builder -->
<g id="edge36" class="edge">
<title>cargo_modules::tree&#45;&gt;cargo_modules::tree::builder</title>
<path fill="none" stroke="#000000" d="M240.11,-734.07C200.96,-731.49 146.63,-727.91 105.57,-725.2"/>
<polygon fill="#000000" stroke="#000000" points="105.82,-721.71 95.61,-724.54 105.36,-728.69 105.82,-721.71"/>
<text text-anchor="middle" x="160.84" y="-734.38" font-family="monospace" font-size="10.00">owns</text>
</g>
</g>
</svg>
